<svg width="55" height="56" viewBox="0 0 55 56" fill="none" xmlns="http://www.w3.org/2000/svg">
<path d="M43.5417 25.6667H20.625L28.1646 17.99C28.3794 17.7731 28.5499 17.515 28.6662 17.2307C28.7826 16.9463 28.8425 16.6414 28.8425 16.3333C28.8425 16.0253 28.7826 15.7203 28.6662 15.436C28.5499 15.1516 28.3794 14.8936 28.1646 14.6767C27.7352 14.2421 27.1544 13.9981 26.549 13.9981C25.9435 13.9981 25.3627 14.2421 24.9333 14.6767L15.1021 24.71C14.2414 25.5812 13.7551 26.7643 13.75 28C13.7612 29.2276 14.2469 30.4012 15.1021 31.2667L24.9333 41.3C25.147 41.516 25.4004 41.6871 25.679 41.8034C25.9576 41.9197 26.2559 41.979 26.5571 41.978C26.8582 41.9769 27.1561 41.9154 27.4339 41.7971C27.7117 41.6788 27.9639 41.5059 28.176 41.2883C28.3882 41.0708 28.5562 40.8128 28.6705 40.5291C28.7847 40.2455 28.843 39.9417 28.8419 39.6351C28.8408 39.3285 28.7805 39.0251 28.6643 38.7423C28.548 38.4595 28.3783 38.2027 28.1646 37.9867L20.625 30.3333H43.5417C44.1495 30.3333 44.7324 30.0875 45.1621 29.6499C45.5919 29.2123 45.8333 28.6188 45.8333 28C45.8333 27.3812 45.5919 26.7877 45.1621 26.3501C44.7324 25.9125 44.1495 25.6667 43.5417 25.6667Z" fill="#192649"/>
</svg>
